:SAMPLES-PER-SECOND 30
:FULLY-SPECIFIED
:DEGREES
333
root  -12.2753 34.1811 0.0227887 -171.903 4.64323 -179.492
RightUpLeg  -9.10292 -7.06033 -4.01115
RightLeg  12.7936 0.60348 0.0973235
RightFoot  0.968013 -0.00505058 0.213914
RightToes  -31.424 -0.153848 -0.26174
Spine  -1.87641 1.91817 -0.853581
Spine1  -3.90094 4.02647 -1.08109
HEad  -62.6753 0.94435 4.58203
LeftShoulder1  -1.94126e-019 -3.10601e-018 -2.51263e-017
LeftArm  -11.87 27.1696 -77.507
LeftForeArm  31.499 -10.8138 -1.88344
LeftHand  -0.25269 0.00698839 5.49659
RightShoulder  -4.96962e-017 0 -2.36833e-017
RightArm  -22.4819 -24.9433 79.9351
RightForeArm  50.4893 16.3886 1.19329
RightHand  -0.400355 -2.7955 -17.5839
LeftUpLeg  -10.1605 1.03197 -0.961903
LeftLeg  18.7189 17.511 4.6187
LeftFoot  -4.96296 -0.0702895 -1.46025
LeftToes  -15.3721 2.14545e-006 -7.7278e-009
334
root  -12.1517 34.206 0.146104 -171.958 5.43829 -179.516
RightUpLeg  -9.73857 -8.75407 -3.9097
RightLeg  13.4489 3.03555 0.522704
RightFoot  0.95528 -0.0069037 0.242663
RightToes  -32.6608 -0.162667 -0.270027
Spine  -1.96368 1.70477 -0.688737
Spine1  -4.04346 3.64818 -0.780309
HEad  -62.4053 2.64813 3.99414
LeftShoulder1  -1.94126e-019 -3.10601e-018 -2.51263e-017
LeftArm  -12.6337 29.1544 -78.5191
LeftForeArm  29.511 -11.7439 -2.01135
LeftHand  -0.253361 -0.288791 5.25203
RightShoulder  -4.96962e-017 0 -2.36833e-017
RightArm  -24.203 -24.5818 79.7736
RightForeArm  50.3441 15.9463 1.19614
RightHand  -0.373009 -2.9685 -17.5097
LeftUpLeg  -9.65009 1.84959 -0.818964
LeftLeg  17.5346 17.5333 4.24635
LeftFoot  -4.2969 -0.0525433 -1.23896
LeftToes  -16.119 2.14545e-006 -7.7278e-009
335
root  -12.0017 34.2086 0.289423 -171.981 5.82033 -179.633
RightUpLeg  -9.91649 -8.38501 -3.78428
RightLeg  13.2473 3.08859 0.520691
RightFoot  1.11389 -0.00716054 0.249816
RightToes  -32.6727 -0.162752 -0.270106
Spine  -1.95659 1.44092 -0.597367
Spine1  -4.02212 3.15147 -0.625332
HEad  -62.7585 3.91427 3.70743
LeftShoulder1  -1.94126e-019 -3.10601e-018 -2.51263e-017
LeftArm  -12.8814 30.5292 -79.1713
LeftForeArm  27.4383 -13.0328 -2.16003
LeftHand  -0.334832 -1.19656 6.04615
RightShoulder  -4.96962e-017 0 -2.36833e-017
RightArm  -26.0639 -24.3016 79.72
RightForeArm  49.3967 15.8566 1.22711
RightHand  -0.349867 -2.93413 -16.1615
LeftUpLeg  -9.3919 2.73842 -0.66907
LeftLeg  16.613 17.0543 3.85006
LeftFoot  -3.68369 -0.0375053 -1.00471
LeftToes  -16.9985 2.14545e-006 -7.7278e-009
336
root  -11.8784 34.2249 0.421343 -172.181 5.8365 -179.771
RightUpLeg  -10.3133 -7.52383 -3.62517
RightLeg  14.0281 2.14798 0.392285
RightFoot  0.801698 -0.00471834 0.219467
RightToes  -31.3312 -0.153195 -0.261111
Spine  -1.85971 1.15217 -0.538813
Spine1  -3.83401 2.57575 -0.530239
HEad  -63.5606 4.79496 3.61532
LeftShoulder1  -1.94126e-019 -3.10601e-018 -2.51263e-017
LeftArm  -12.9238 30.914 -79.5619
LeftForeArm  27.1898 -13.7742 -2.23084
LeftHand  -0.259662 -0.656226 5.08772
RightShoulder  -4.96962e-017 0 -2.36833e-017
RightArm  -27.9476 -24.0146 79.6002
RightForeArm  48.9987 15.5806 1.24763
RightHand  -0.326612 -3.1094 -16.1964
LeftUpLeg  -8.95971 2.64416 -0.599234
LeftLeg  15.7038 17.2288 3.60704
LeftFoot  -3.02444 -0.0256473 -0.809934
LeftToes  -17.1532 2.14545e-006 -7.7278e-009
337
root  -11.7718 34.2553 0.516015 -172.232 5.5188 -179.859
RightUpLeg  -9.98653 -6.58888 -3.47743
RightLeg  13.2999 0.955353 0.162301
RightFoot  1.15918 -0.00332534 0.205015
RightToes  -30.6419 -0.148366 -0.256403
Spine  -1.82667 0.863211 -0.494018
Spine1  -3.76872 1.96038 -0.435023
HEad  -64.182 5.04942 3.78662
LeftShoulder1  -1.94126e-019 -3.10601e-018 -2.51263e-017
LeftArm  -12.7776 30.5429 -79.7374
LeftForeArm  28.3478 -13.9597 -2.22634
LeftHand  -0.371579 -1.52075 6.40726
RightShoulder  -4.96962e-017 0 -2.36833e-017
RightArm  -29.2794 -24.0097 79.3458
RightForeArm  48.9755 15.0623 1.27777
RightHand  -0.317027 -3.16867 -16.1183
LeftUpLeg  -8.5985 2.18517 -0.496694
LeftLeg  14.6606 17.4559 3.32847
LeftFoot  -2.31171 -0.0153137 -0.597431
LeftToes  -17.4 2.14545e-006 -7.7278e-009
338
root  -11.6925 34.2842 0.62485 -172.274 4.73625 -179.925
RightUpLeg  -9.7951 -7.33936 -3.35813
RightLeg  12.938 0.961567 0.157196
RightFoot  1.37811 -0.00244991 0.198712
RightToes  -30.5093 -0.147138 -0.254265
Spine  -1.81121 0.577877 -0.450687
Spine1  -3.74297 1.33071 -0.332381
HEad  -64.0872 4.55414 4.11474
LeftShoulder1  -1.94126e-019 -3.10601e-018 -2.51263e-017
LeftArm  -12.4192 29.5386 -79.7134
LeftForeArm  29.1704 -13.7899 -2.20358
LeftHand  -0.38544 -1.50007 6.65892
RightShoulder  -4.96962e-017 0 -2.36833e-017
RightArm  -29.3482 -24.437 78.931
RightForeArm  48.8114 14.7148 1.30878
RightHand  -0.313822 -3.14993 -15.8151
LeftUpLeg  -8.59495 1.98109 -0.347199
LeftLeg  14.1286 16.9431 3.07372
LeftFoot  -1.78289 -0.00899938 -0.416814
LeftToes  -17.7863 2.14545e-006 -7.7278e-009
339
root  -11.6078 34.3007 0.728726 -172.272 3.86661 -179.956
RightUpLeg  -9.59313 -8.42203 -3.19807
RightLeg  12.5133 1.18456 0.184615
RightFoot  1.51268 -0.00164299 0.19399
RightToes  -30.504 -0.147342 -0.253241
Spine  -1.80693 0.376012 -0.423829
Spine1  -3.7424 0.856002 -0.265656
HEad  -63.5233 3.71961 4.64653
LeftShoulder1  -1.94126e-019 -3.10601e-018 -2.51263e-017
LeftArm  -12.0847 28.1319 -79.53
LeftForeArm  29.3627 -13.4692 -2.17736
LeftHand  -0.404917 -1.41288 7.07039
RightShoulder  -4.96962e-017 0 -2.36833e-017
RightArm  -28.3829 -25.1066 78.5092
RightForeArm  49.0199 14.4235 1.32964
RightHand  -0.316774 -3.07671 -15.4675
LeftUpLeg  -8.85951 1.97667 -0.136885
LeftLeg  14.0563 16.1138 2.90685
LeftFoot  -1.47495 -0.00604193 -0.307835
LeftToes  -18.4373 2.14545e-006 -7.7278e-009
340
root  -11.5265 34.3125 0.829969 -172.324 3.13438 -179.981
RightUpLeg  -9.41752 -8.96212 -3.02918
RightLeg  12.2112 1.04772 0.157766
RightFoot  1.62247 -0.000149098 0.1799
RightToes  -30.4114 -0.146764 -0.252682
Spine  -1.78974 0.30658 -0.410471
Spine1  -3.71413 0.639497 -0.231111
HEad  -62.904 2.73385 5.04946
LeftShoulder1  -1.94126e-019 -3.10601e-018 -2.51263e-017
LeftArm  -11.7961 26.41 -79.3718
LeftForeArm  29.8471 -13.0591 -2.1396
LeftHand  -0.410795 -1.28614 7.29681
RightShoulder  -4.96962e-017 0 -2.36833e-017
RightArm  -27.8242 -25.6735 78.1328
RightForeArm  50.1524 13.8073 1.36821
RightHand  -0.361695 -2.7074 -15.3268
LeftUpLeg  -9.16344 1.64334 0.0388569
LeftLeg  14.2357 15.7409 2.89155
LeftFoot  -1.22937 -0.00428896 -0.238221
LeftToes  -18.9696 2.14545e-006 -7.7278e-009
